<mxfile host="app.diagrams.net" agent="Mozilla/5.0 (Windows NT 10.0; Win64; x64) AppleWebKit/537.36 (KHTML, like Gecko) Chrome/133.0.0.0 Safari/537.36 Edg/133.0.0.0" version="26.0.14">
  <diagram name="Page-1" id="2cc2dc42-3aac-f2a9-1cec-7a8b7cbee084">
    <mxGraphModel dx="946" dy="567" grid="1" gridSize="10" guides="1" tooltips="1" connect="1" arrows="1" fold="1" page="1" pageScale="1" pageWidth="1100" pageHeight="850" background="none" math="0" shadow="0">
      <root>
        <mxCell id="0" />
        <mxCell id="1" parent="0" />
        <mxCell id="7026571954dc6520-1" value="" style="strokeWidth=1;shadow=0;dashed=0;align=center;html=1;shape=mxgraph.mockup.containers.browserWindow;rSize=0;strokeColor=#82b366;mainText=,;recursiveResize=0;rounded=0;labelBackgroundColor=none;fontFamily=Verdana;fontSize=12;fillColor=#d5e8d4;gradientColor=default;gradientDirection=north;" parent="1" vertex="1">
          <mxGeometry x="25" y="200" width="1050" height="820" as="geometry" />
        </mxCell>
        <mxCell id="7026571954dc6520-2" value="Page 1" style="strokeWidth=1;shadow=0;dashed=0;align=center;html=1;shape=mxgraph.mockup.containers.anchor;fontSize=17;fontColor=#666666;align=left;" parent="7026571954dc6520-1" vertex="1">
          <mxGeometry x="60" y="12" width="110" height="26" as="geometry" />
        </mxCell>
        <mxCell id="7026571954dc6520-3" value="https://www.default.com" style="strokeWidth=1;shadow=0;dashed=0;align=center;html=1;shape=mxgraph.mockup.containers.anchor;rSize=0;fontSize=17;fontColor=#666666;align=left;" parent="7026571954dc6520-1" vertex="1">
          <mxGeometry x="130" y="60" width="250" height="26" as="geometry" />
        </mxCell>
        <mxCell id="7026571954dc6520-4" value="All Angles Media&amp;nbsp;" style="text;html=1;points=[];align=left;verticalAlign=top;spacingTop=-4;fontSize=30;fontFamily=Verdana" parent="7026571954dc6520-1" vertex="1">
          <mxGeometry x="30" y="140" width="340" height="50" as="geometry" />
        </mxCell>
        <mxCell id="7026571954dc6520-6" value="Created&amp;nbsp;" style="text;html=1;points=[];align=left;verticalAlign=top;spacingTop=-4;fontSize=15;fontFamily=Verdana" parent="7026571954dc6520-1" vertex="1">
          <mxGeometry x="540" y="140" width="170" height="30" as="geometry" />
        </mxCell>
        <mxCell id="7026571954dc6520-7" value="Some default text to fill some space, and&amp;nbsp;&lt;span&gt;something more so there is more text&lt;/span&gt;" style="text;html=1;points=[];align=left;verticalAlign=top;spacingTop=-4;fontSize=12;fontFamily=Verdana;whiteSpace=wrap;" parent="7026571954dc6520-1" vertex="1">
          <mxGeometry x="540" y="170" width="240" height="40" as="geometry" />
        </mxCell>
        <mxCell id="7026571954dc6520-8" value="About Me.&amp;nbsp;" style="text;html=1;points=[];align=left;verticalAlign=top;spacingTop=-4;fontSize=15;fontFamily=Verdana" parent="7026571954dc6520-1" vertex="1">
          <mxGeometry x="540" y="230" width="170" height="30" as="geometry" />
        </mxCell>
        <mxCell id="7026571954dc6520-9" value="Some default text to fill some space, and&amp;nbsp;&lt;span&gt;something more so there is more text&lt;/span&gt;" style="text;html=1;points=[];align=left;verticalAlign=top;spacingTop=-4;fontSize=12;fontFamily=Verdana;whiteSpace=wrap;" parent="7026571954dc6520-1" vertex="1">
          <mxGeometry x="540" y="260" width="240" height="40" as="geometry" />
        </mxCell>
        <mxCell id="7026571954dc6520-10" value="Section 1" style="text;html=1;points=[];align=left;verticalAlign=top;spacingTop=-4;fontSize=15;fontFamily=Verdana" parent="7026571954dc6520-1" vertex="1">
          <mxGeometry x="800" y="140" width="170" height="30" as="geometry" />
        </mxCell>
        <mxCell id="7026571954dc6520-11" value="Some default text to fill some space, and&amp;nbsp;&lt;span&gt;something more so there is more text&lt;/span&gt;" style="text;html=1;points=[];align=left;verticalAlign=top;spacingTop=-4;fontSize=12;fontFamily=Verdana;whiteSpace=wrap;" parent="7026571954dc6520-1" vertex="1">
          <mxGeometry x="800" y="170" width="240" height="40" as="geometry" />
        </mxCell>
        <mxCell id="7026571954dc6520-12" value="Search" style="text;html=1;points=[];align=left;verticalAlign=top;spacingTop=-4;fontSize=15;fontFamily=Verdana" parent="7026571954dc6520-1" vertex="1">
          <mxGeometry x="800" y="230" width="170" height="30" as="geometry" />
        </mxCell>
        <mxCell id="7026571954dc6520-14" value="Search" style="strokeWidth=1;shadow=0;dashed=0;align=center;html=1;shape=mxgraph.mockup.forms.searchBox;strokeColor=#999999;mainText=;strokeColor2=#008cff;fontColor=#666666;fontSize=17;align=left;spacingLeft=3;rounded=0;labelBackgroundColor=none;" parent="7026571954dc6520-1" vertex="1">
          <mxGeometry x="800" y="260" width="220" height="30" as="geometry" />
        </mxCell>
        <mxCell id="7026571954dc6520-15" value="" style="verticalLabelPosition=bottom;shadow=0;dashed=0;align=center;html=1;verticalAlign=top;strokeWidth=1;shape=mxgraph.mockup.markup.line;strokeColor=#999999;rounded=0;labelBackgroundColor=none;fillColor=#ffffff;fontFamily=Verdana;fontSize=12;fontColor=#000000;" parent="7026571954dc6520-1" vertex="1">
          <mxGeometry y="310" width="1050" height="20" as="geometry" />
        </mxCell>
        <mxCell id="7026571954dc6520-16" value="My Mission&amp;nbsp;" style="text;html=1;points=[];align=left;verticalAlign=top;spacingTop=-4;fontSize=15;fontFamily=Verdana" parent="7026571954dc6520-1" vertex="1">
          <mxGeometry x="20" y="330" width="170" height="30" as="geometry" />
        </mxCell>
        <mxCell id="7026571954dc6520-17" value="My mission is to create a memory that you can have forever.&amp;nbsp; I take photos and drone footage and create memories that last forever.&amp;nbsp; I have numerous years of experience using a drone and other photography equipment.&amp;nbsp; I live in Gardnerville, Nevada with my wife, Kim and my son and daughter, Samuel and Dakota and our two dogs, Apollo and Simba.&amp;nbsp;&amp;nbsp;" style="text;spacingTop=-5;whiteSpace=wrap;html=1;align=left;fontSize=12;fontFamily=Helvetica;fillColor=none;strokeColor=none;rounded=0;shadow=1;labelBackgroundColor=none;" parent="7026571954dc6520-1" vertex="1">
          <mxGeometry x="20" y="370" width="570" height="240" as="geometry" />
        </mxCell>
        <mxCell id="7026571954dc6520-18" value="Contact Me" style="strokeWidth=1;shadow=0;dashed=0;align=center;html=1;shape=mxgraph.mockup.buttons.button;strokeColor=#666666;mainText=;buttonStyle=round;fontSize=17;fontStyle=0;fillColor=none;whiteSpace=wrap;rounded=0;labelBackgroundColor=none;" parent="7026571954dc6520-1" vertex="1">
          <mxGeometry x="790" y="360" width="190" height="30" as="geometry" />
        </mxCell>
        <mxCell id="7026571954dc6520-21" value="" style="verticalLabelPosition=bottom;shadow=0;dashed=0;align=center;html=1;verticalAlign=top;strokeWidth=1;shape=mxgraph.mockup.markup.line;strokeColor=#999999;rounded=0;labelBackgroundColor=none;fillColor=#ffffff;fontFamily=Verdana;fontSize=12;fontColor=#000000;" parent="7026571954dc6520-1" vertex="1">
          <mxGeometry y="580" width="1050" height="20" as="geometry" />
        </mxCell>
        <mxCell id="6KoDQSctOEpb1ayeHO3l-27" value="" style="strokeWidth=1;shadow=0;dashed=0;align=center;html=1;shape=mxgraph.mockup.forms.rrect;rSize=5;strokeColor=#999999;fillColor=#ffffff;" vertex="1" parent="7026571954dc6520-1">
          <mxGeometry x="230" y="620" width="160" height="175" as="geometry" />
        </mxCell>
        <mxCell id="6KoDQSctOEpb1ayeHO3l-28" value="October 2014" style="strokeWidth=1;shadow=0;dashed=0;align=center;html=1;shape=mxgraph.mockup.forms.anchor;fontColor=#999999;" vertex="1" parent="6KoDQSctOEpb1ayeHO3l-27">
          <mxGeometry x="30" y="8" width="100" height="20" as="geometry" />
        </mxCell>
        <mxCell id="6KoDQSctOEpb1ayeHO3l-29" value="&lt;" style="strokeWidth=1;shadow=0;dashed=0;align=center;html=1;shape=mxgraph.mockup.forms.rrect;rSize=4;strokeColor=#999999;fontColor=#008cff;fontSize=19;fontStyle=1;" vertex="1" parent="6KoDQSctOEpb1ayeHO3l-27">
          <mxGeometry x="8" y="8" width="25" height="20" as="geometry" />
        </mxCell>
        <mxCell id="6KoDQSctOEpb1ayeHO3l-30" value="&gt;" style="strokeWidth=1;shadow=0;dashed=0;align=center;html=1;shape=mxgraph.mockup.forms.rrect;rSize=4;strokeColor=#999999;fontColor=#008cff;fontSize=19;fontStyle=1;" vertex="1" parent="6KoDQSctOEpb1ayeHO3l-27">
          <mxGeometry x="127" y="8" width="25" height="20" as="geometry" />
        </mxCell>
        <mxCell id="6KoDQSctOEpb1ayeHO3l-31" value="Mo" style="strokeWidth=1;shadow=0;dashed=0;align=center;html=1;shape=mxgraph.mockup.forms.anchor;fontColor=#999999;" vertex="1" parent="6KoDQSctOEpb1ayeHO3l-27">
          <mxGeometry x="10" y="28" width="20" height="20" as="geometry" />
        </mxCell>
        <mxCell id="6KoDQSctOEpb1ayeHO3l-32" value="Tu" style="strokeWidth=1;shadow=0;dashed=0;align=center;html=1;shape=mxgraph.mockup.forms.anchor;fontColor=#999999;" vertex="1" parent="6KoDQSctOEpb1ayeHO3l-27">
          <mxGeometry x="30" y="28" width="20" height="20" as="geometry" />
        </mxCell>
        <mxCell id="6KoDQSctOEpb1ayeHO3l-33" value="We" style="strokeWidth=1;shadow=0;dashed=0;align=center;html=1;shape=mxgraph.mockup.forms.anchor;fontColor=#999999;" vertex="1" parent="6KoDQSctOEpb1ayeHO3l-27">
          <mxGeometry x="50" y="28" width="20" height="20" as="geometry" />
        </mxCell>
        <mxCell id="6KoDQSctOEpb1ayeHO3l-34" value="Th" style="strokeWidth=1;shadow=0;dashed=0;align=center;html=1;shape=mxgraph.mockup.forms.anchor;fontColor=#999999;" vertex="1" parent="6KoDQSctOEpb1ayeHO3l-27">
          <mxGeometry x="70" y="28" width="20" height="20" as="geometry" />
        </mxCell>
        <mxCell id="6KoDQSctOEpb1ayeHO3l-35" value="Fr" style="strokeWidth=1;shadow=0;dashed=0;align=center;html=1;shape=mxgraph.mockup.forms.anchor;fontColor=#999999;" vertex="1" parent="6KoDQSctOEpb1ayeHO3l-27">
          <mxGeometry x="90" y="28" width="20" height="20" as="geometry" />
        </mxCell>
        <mxCell id="6KoDQSctOEpb1ayeHO3l-36" value="Sa" style="strokeWidth=1;shadow=0;dashed=0;align=center;html=1;shape=mxgraph.mockup.forms.anchor;fontColor=#999999;" vertex="1" parent="6KoDQSctOEpb1ayeHO3l-27">
          <mxGeometry x="110" y="28" width="20" height="20" as="geometry" />
        </mxCell>
        <mxCell id="6KoDQSctOEpb1ayeHO3l-37" value="Su" style="strokeWidth=1;shadow=0;dashed=0;align=center;html=1;shape=mxgraph.mockup.forms.anchor;fontColor=#999999;" vertex="1" parent="6KoDQSctOEpb1ayeHO3l-27">
          <mxGeometry x="130" y="28" width="20" height="20" as="geometry" />
        </mxCell>
        <mxCell id="6KoDQSctOEpb1ayeHO3l-38" value="1" style="strokeWidth=1;shadow=0;dashed=0;align=center;html=1;shape=mxgraph.mockup.forms.rrect;rSize=0;strokeColor=#999999;fontColor=#999999;" vertex="1" parent="6KoDQSctOEpb1ayeHO3l-27">
          <mxGeometry x="10" y="48" width="20" height="20" as="geometry" />
        </mxCell>
        <mxCell id="6KoDQSctOEpb1ayeHO3l-39" value="2" style="strokeWidth=1;shadow=0;dashed=0;align=center;html=1;shape=mxgraph.mockup.forms.rrect;rSize=0;strokeColor=#999999;fontColor=#999999;" vertex="1" parent="6KoDQSctOEpb1ayeHO3l-27">
          <mxGeometry x="30" y="48" width="20" height="20" as="geometry" />
        </mxCell>
        <mxCell id="6KoDQSctOEpb1ayeHO3l-40" value="3" style="strokeWidth=1;shadow=0;dashed=0;align=center;html=1;shape=mxgraph.mockup.forms.rrect;rSize=0;strokeColor=#999999;fontColor=#999999;" vertex="1" parent="6KoDQSctOEpb1ayeHO3l-27">
          <mxGeometry x="50" y="48" width="20" height="20" as="geometry" />
        </mxCell>
        <mxCell id="6KoDQSctOEpb1ayeHO3l-41" value="4" style="strokeWidth=1;shadow=0;dashed=0;align=center;html=1;shape=mxgraph.mockup.forms.rrect;rSize=0;strokeColor=#999999;fontColor=#999999;" vertex="1" parent="6KoDQSctOEpb1ayeHO3l-27">
          <mxGeometry x="70" y="48" width="20" height="20" as="geometry" />
        </mxCell>
        <mxCell id="6KoDQSctOEpb1ayeHO3l-42" value="5" style="strokeWidth=1;shadow=0;dashed=0;align=center;html=1;shape=mxgraph.mockup.forms.rrect;rSize=0;strokeColor=#999999;fontColor=#999999;" vertex="1" parent="6KoDQSctOEpb1ayeHO3l-27">
          <mxGeometry x="90" y="48" width="20" height="20" as="geometry" />
        </mxCell>
        <mxCell id="6KoDQSctOEpb1ayeHO3l-43" value="6" style="strokeWidth=1;shadow=0;dashed=0;align=center;html=1;shape=mxgraph.mockup.forms.rrect;rSize=0;strokeColor=#999999;fontColor=#999999;" vertex="1" parent="6KoDQSctOEpb1ayeHO3l-27">
          <mxGeometry x="110" y="48" width="20" height="20" as="geometry" />
        </mxCell>
        <mxCell id="6KoDQSctOEpb1ayeHO3l-44" value="7" style="strokeWidth=1;shadow=0;dashed=0;align=center;html=1;shape=mxgraph.mockup.forms.rrect;rSize=0;strokeColor=#999999;fontColor=#999999;" vertex="1" parent="6KoDQSctOEpb1ayeHO3l-27">
          <mxGeometry x="130" y="48" width="20" height="20" as="geometry" />
        </mxCell>
        <mxCell id="6KoDQSctOEpb1ayeHO3l-45" value="8" style="strokeWidth=1;shadow=0;dashed=0;align=center;html=1;shape=mxgraph.mockup.forms.rrect;rSize=0;strokeColor=#999999;fontColor=#999999;" vertex="1" parent="6KoDQSctOEpb1ayeHO3l-27">
          <mxGeometry x="10" y="68" width="20" height="20" as="geometry" />
        </mxCell>
        <mxCell id="6KoDQSctOEpb1ayeHO3l-46" value="9" style="strokeWidth=1;shadow=0;dashed=0;align=center;html=1;shape=mxgraph.mockup.forms.rrect;rSize=0;strokeColor=#999999;fontColor=#999999;" vertex="1" parent="6KoDQSctOEpb1ayeHO3l-27">
          <mxGeometry x="30" y="68" width="20" height="20" as="geometry" />
        </mxCell>
        <mxCell id="6KoDQSctOEpb1ayeHO3l-47" value="10" style="strokeWidth=1;shadow=0;dashed=0;align=center;html=1;shape=mxgraph.mockup.forms.rrect;rSize=0;strokeColor=#999999;fontColor=#999999;" vertex="1" parent="6KoDQSctOEpb1ayeHO3l-27">
          <mxGeometry x="50" y="68" width="20" height="20" as="geometry" />
        </mxCell>
        <mxCell id="6KoDQSctOEpb1ayeHO3l-48" value="11" style="strokeWidth=1;shadow=0;dashed=0;align=center;html=1;shape=mxgraph.mockup.forms.rrect;rSize=0;strokeColor=#999999;fontColor=#999999;" vertex="1" parent="6KoDQSctOEpb1ayeHO3l-27">
          <mxGeometry x="70" y="68" width="20" height="20" as="geometry" />
        </mxCell>
        <mxCell id="6KoDQSctOEpb1ayeHO3l-49" value="12" style="strokeWidth=1;shadow=0;dashed=0;align=center;html=1;shape=mxgraph.mockup.forms.rrect;rSize=0;strokeColor=#999999;fontColor=#999999;" vertex="1" parent="6KoDQSctOEpb1ayeHO3l-27">
          <mxGeometry x="90" y="68" width="20" height="20" as="geometry" />
        </mxCell>
        <mxCell id="6KoDQSctOEpb1ayeHO3l-50" value="13" style="strokeWidth=1;shadow=0;dashed=0;align=center;html=1;shape=mxgraph.mockup.forms.rrect;rSize=0;strokeColor=#999999;fontColor=#999999;" vertex="1" parent="6KoDQSctOEpb1ayeHO3l-27">
          <mxGeometry x="110" y="68" width="20" height="20" as="geometry" />
        </mxCell>
        <mxCell id="6KoDQSctOEpb1ayeHO3l-51" value="14" style="strokeWidth=1;shadow=0;dashed=0;align=center;html=1;shape=mxgraph.mockup.forms.rrect;rSize=0;strokeColor=#999999;fontColor=#999999;" vertex="1" parent="6KoDQSctOEpb1ayeHO3l-27">
          <mxGeometry x="130" y="68" width="20" height="20" as="geometry" />
        </mxCell>
        <mxCell id="6KoDQSctOEpb1ayeHO3l-52" value="15" style="strokeWidth=1;shadow=0;dashed=0;align=center;html=1;shape=mxgraph.mockup.forms.rrect;rSize=0;strokeColor=#999999;fontColor=#999999;" vertex="1" parent="6KoDQSctOEpb1ayeHO3l-27">
          <mxGeometry x="10" y="88" width="20" height="20" as="geometry" />
        </mxCell>
        <mxCell id="6KoDQSctOEpb1ayeHO3l-53" value="16" style="strokeWidth=1;shadow=0;dashed=0;align=center;html=1;shape=mxgraph.mockup.forms.rrect;rSize=0;strokeColor=#999999;fontColor=#999999;" vertex="1" parent="6KoDQSctOEpb1ayeHO3l-27">
          <mxGeometry x="30" y="88" width="20" height="20" as="geometry" />
        </mxCell>
        <mxCell id="6KoDQSctOEpb1ayeHO3l-54" value="17" style="strokeWidth=1;shadow=0;dashed=0;align=center;html=1;shape=mxgraph.mockup.forms.rrect;rSize=0;strokeColor=#999999;fontColor=#999999;" vertex="1" parent="6KoDQSctOEpb1ayeHO3l-27">
          <mxGeometry x="50" y="88" width="20" height="20" as="geometry" />
        </mxCell>
        <mxCell id="6KoDQSctOEpb1ayeHO3l-55" value="18" style="strokeWidth=1;shadow=0;dashed=0;align=center;html=1;shape=mxgraph.mockup.forms.rrect;rSize=0;strokeColor=#999999;fontColor=#999999;" vertex="1" parent="6KoDQSctOEpb1ayeHO3l-27">
          <mxGeometry x="70" y="88" width="20" height="20" as="geometry" />
        </mxCell>
        <mxCell id="6KoDQSctOEpb1ayeHO3l-56" value="19" style="strokeWidth=1;shadow=0;dashed=0;align=center;html=1;shape=mxgraph.mockup.forms.rrect;rSize=0;strokeColor=#999999;fontColor=#999999;" vertex="1" parent="6KoDQSctOEpb1ayeHO3l-27">
          <mxGeometry x="90" y="88" width="20" height="20" as="geometry" />
        </mxCell>
        <mxCell id="6KoDQSctOEpb1ayeHO3l-57" value="20" style="strokeWidth=1;shadow=0;dashed=0;align=center;html=1;shape=mxgraph.mockup.forms.rrect;rSize=0;strokeColor=#999999;fontColor=#999999;" vertex="1" parent="6KoDQSctOEpb1ayeHO3l-27">
          <mxGeometry x="110" y="88" width="20" height="20" as="geometry" />
        </mxCell>
        <mxCell id="6KoDQSctOEpb1ayeHO3l-58" value="21" style="strokeWidth=1;shadow=0;dashed=0;align=center;html=1;shape=mxgraph.mockup.forms.rrect;rSize=0;strokeColor=#999999;fontColor=#999999;" vertex="1" parent="6KoDQSctOEpb1ayeHO3l-27">
          <mxGeometry x="130" y="88" width="20" height="20" as="geometry" />
        </mxCell>
        <mxCell id="6KoDQSctOEpb1ayeHO3l-59" value="22" style="strokeWidth=1;shadow=0;dashed=0;align=center;html=1;shape=mxgraph.mockup.forms.rrect;rSize=0;strokeColor=#999999;fontColor=#999999;" vertex="1" parent="6KoDQSctOEpb1ayeHO3l-27">
          <mxGeometry x="10" y="108" width="20" height="20" as="geometry" />
        </mxCell>
        <mxCell id="6KoDQSctOEpb1ayeHO3l-60" value="23" style="strokeWidth=1;shadow=0;dashed=0;align=center;html=1;shape=mxgraph.mockup.forms.rrect;rSize=0;strokeColor=#999999;fontColor=#999999;" vertex="1" parent="6KoDQSctOEpb1ayeHO3l-27">
          <mxGeometry x="30" y="108" width="20" height="20" as="geometry" />
        </mxCell>
        <mxCell id="6KoDQSctOEpb1ayeHO3l-61" value="25" style="strokeWidth=1;shadow=0;dashed=0;align=center;html=1;shape=mxgraph.mockup.forms.rrect;rSize=0;strokeColor=#999999;fontColor=#999999;" vertex="1" parent="6KoDQSctOEpb1ayeHO3l-27">
          <mxGeometry x="70" y="108" width="20" height="20" as="geometry" />
        </mxCell>
        <mxCell id="6KoDQSctOEpb1ayeHO3l-62" value="26" style="strokeWidth=1;shadow=0;dashed=0;align=center;html=1;shape=mxgraph.mockup.forms.rrect;rSize=0;strokeColor=#999999;fontColor=#999999;" vertex="1" parent="6KoDQSctOEpb1ayeHO3l-27">
          <mxGeometry x="90" y="108" width="20" height="20" as="geometry" />
        </mxCell>
        <mxCell id="6KoDQSctOEpb1ayeHO3l-63" value="27" style="strokeWidth=1;shadow=0;dashed=0;align=center;html=1;shape=mxgraph.mockup.forms.rrect;rSize=0;strokeColor=#999999;fontColor=#999999;" vertex="1" parent="6KoDQSctOEpb1ayeHO3l-27">
          <mxGeometry x="110" y="108" width="20" height="20" as="geometry" />
        </mxCell>
        <mxCell id="6KoDQSctOEpb1ayeHO3l-64" value="28" style="strokeWidth=1;shadow=0;dashed=0;align=center;html=1;shape=mxgraph.mockup.forms.rrect;rSize=0;strokeColor=#999999;fontColor=#999999;" vertex="1" parent="6KoDQSctOEpb1ayeHO3l-27">
          <mxGeometry x="130" y="108" width="20" height="20" as="geometry" />
        </mxCell>
        <mxCell id="6KoDQSctOEpb1ayeHO3l-65" value="29" style="strokeWidth=1;shadow=0;dashed=0;align=center;html=1;shape=mxgraph.mockup.forms.rrect;rSize=0;strokeColor=#999999;fontColor=#999999;" vertex="1" parent="6KoDQSctOEpb1ayeHO3l-27">
          <mxGeometry x="10" y="128" width="20" height="20" as="geometry" />
        </mxCell>
        <mxCell id="6KoDQSctOEpb1ayeHO3l-66" value="30" style="strokeWidth=1;shadow=0;dashed=0;align=center;html=1;shape=mxgraph.mockup.forms.rrect;rSize=0;strokeColor=#999999;fontColor=#999999;" vertex="1" parent="6KoDQSctOEpb1ayeHO3l-27">
          <mxGeometry x="30" y="128" width="20" height="20" as="geometry" />
        </mxCell>
        <mxCell id="6KoDQSctOEpb1ayeHO3l-67" value="31" style="strokeWidth=1;shadow=0;dashed=0;align=center;html=1;shape=mxgraph.mockup.forms.rrect;rSize=0;strokeColor=#999999;fontColor=#999999;" vertex="1" parent="6KoDQSctOEpb1ayeHO3l-27">
          <mxGeometry x="50" y="128" width="20" height="20" as="geometry" />
        </mxCell>
        <mxCell id="6KoDQSctOEpb1ayeHO3l-68" value="1" style="strokeWidth=1;shadow=0;dashed=0;align=center;html=1;shape=mxgraph.mockup.forms.rrect;rSize=0;strokeColor=#999999;fontColor=#999999;fillColor=#ddeeff;" vertex="1" parent="6KoDQSctOEpb1ayeHO3l-27">
          <mxGeometry x="70" y="128" width="20" height="20" as="geometry" />
        </mxCell>
        <mxCell id="6KoDQSctOEpb1ayeHO3l-69" value="2" style="strokeWidth=1;shadow=0;dashed=0;align=center;html=1;shape=mxgraph.mockup.forms.rrect;rSize=0;strokeColor=#999999;fontColor=#999999;fillColor=#ddeeff;" vertex="1" parent="6KoDQSctOEpb1ayeHO3l-27">
          <mxGeometry x="90" y="128" width="20" height="20" as="geometry" />
        </mxCell>
        <mxCell id="6KoDQSctOEpb1ayeHO3l-70" value="3" style="strokeWidth=1;shadow=0;dashed=0;align=center;html=1;shape=mxgraph.mockup.forms.rrect;rSize=0;strokeColor=#999999;fontColor=#999999;fillColor=#ddeeff;" vertex="1" parent="6KoDQSctOEpb1ayeHO3l-27">
          <mxGeometry x="110" y="128" width="20" height="20" as="geometry" />
        </mxCell>
        <mxCell id="6KoDQSctOEpb1ayeHO3l-71" value="4" style="strokeWidth=1;shadow=0;dashed=0;align=center;html=1;shape=mxgraph.mockup.forms.rrect;rSize=0;strokeColor=#999999;fontColor=#999999;fillColor=#ddeeff;" vertex="1" parent="6KoDQSctOEpb1ayeHO3l-27">
          <mxGeometry x="130" y="128" width="20" height="20" as="geometry" />
        </mxCell>
        <mxCell id="6KoDQSctOEpb1ayeHO3l-72" value="5" style="strokeWidth=1;shadow=0;dashed=0;align=center;html=1;shape=mxgraph.mockup.forms.rrect;rSize=0;strokeColor=#999999;fontColor=#999999;fillColor=#ddeeff;" vertex="1" parent="6KoDQSctOEpb1ayeHO3l-27">
          <mxGeometry x="10" y="148" width="20" height="20" as="geometry" />
        </mxCell>
        <mxCell id="6KoDQSctOEpb1ayeHO3l-73" value="6" style="strokeWidth=1;shadow=0;dashed=0;align=center;html=1;shape=mxgraph.mockup.forms.rrect;rSize=0;strokeColor=#999999;fontColor=#999999;fillColor=#ddeeff;" vertex="1" parent="6KoDQSctOEpb1ayeHO3l-27">
          <mxGeometry x="30" y="148" width="20" height="20" as="geometry" />
        </mxCell>
        <mxCell id="6KoDQSctOEpb1ayeHO3l-74" value="7" style="strokeWidth=1;shadow=0;dashed=0;align=center;html=1;shape=mxgraph.mockup.forms.rrect;rSize=0;strokeColor=#999999;fontColor=#999999;fillColor=#ddeeff;" vertex="1" parent="6KoDQSctOEpb1ayeHO3l-27">
          <mxGeometry x="50" y="148" width="20" height="20" as="geometry" />
        </mxCell>
        <mxCell id="6KoDQSctOEpb1ayeHO3l-75" value="8" style="strokeWidth=1;shadow=0;dashed=0;align=center;html=1;shape=mxgraph.mockup.forms.rrect;rSize=0;strokeColor=#999999;fontColor=#999999;fillColor=#ddeeff;" vertex="1" parent="6KoDQSctOEpb1ayeHO3l-27">
          <mxGeometry x="70" y="148" width="20" height="20" as="geometry" />
        </mxCell>
        <mxCell id="6KoDQSctOEpb1ayeHO3l-76" value="9" style="strokeWidth=1;shadow=0;dashed=0;align=center;html=1;shape=mxgraph.mockup.forms.rrect;rSize=0;strokeColor=#999999;fontColor=#999999;fillColor=#ddeeff;" vertex="1" parent="6KoDQSctOEpb1ayeHO3l-27">
          <mxGeometry x="90" y="148" width="20" height="20" as="geometry" />
        </mxCell>
        <mxCell id="6KoDQSctOEpb1ayeHO3l-77" value="10" style="strokeWidth=1;shadow=0;dashed=0;align=center;html=1;shape=mxgraph.mockup.forms.rrect;rSize=0;strokeColor=#999999;fontColor=#999999;fillColor=#ddeeff;" vertex="1" parent="6KoDQSctOEpb1ayeHO3l-27">
          <mxGeometry x="110" y="148" width="20" height="20" as="geometry" />
        </mxCell>
        <mxCell id="6KoDQSctOEpb1ayeHO3l-78" value="11" style="strokeWidth=1;shadow=0;dashed=0;align=center;html=1;shape=mxgraph.mockup.forms.rrect;rSize=0;strokeColor=#999999;fontColor=#999999;fillColor=#ddeeff;" vertex="1" parent="6KoDQSctOEpb1ayeHO3l-27">
          <mxGeometry x="130" y="148" width="20" height="20" as="geometry" />
        </mxCell>
        <mxCell id="6KoDQSctOEpb1ayeHO3l-79" value="24" style="strokeWidth=1;shadow=0;dashed=0;align=center;html=1;shape=mxgraph.mockup.forms.rrect;rSize=0;strokeColor=#ff0000;fontColor=#ffffff;strokeWidth=2;fillColor=#008cff;" vertex="1" parent="6KoDQSctOEpb1ayeHO3l-27">
          <mxGeometry x="50" y="108" width="20" height="20" as="geometry" />
        </mxCell>
        <mxCell id="6KoDQSctOEpb1ayeHO3l-80" value="" style="verticalLabelPosition=bottom;shadow=0;dashed=0;align=center;html=1;verticalAlign=top;strokeWidth=1;shape=mxgraph.mockup.misc.mail2;strokeColor=#999999;" vertex="1" parent="7026571954dc6520-1">
          <mxGeometry x="670" y="350" width="100" height="60" as="geometry" />
        </mxCell>
        <mxCell id="6KoDQSctOEpb1ayeHO3l-101" value="" style="shape=table;html=1;whiteSpace=wrap;startSize=0;container=1;collapsible=0;childLayout=tableLayout;strokeWidth=2;" vertex="1" parent="7026571954dc6520-1">
          <mxGeometry x="590" y="640" width="310" height="145" as="geometry" />
        </mxCell>
        <mxCell id="6KoDQSctOEpb1ayeHO3l-102" value="" style="shape=tableRow;horizontal=0;startSize=0;swimlaneHead=0;swimlaneBody=0;top=0;left=0;bottom=0;right=0;collapsible=0;dropTarget=0;fillColor=none;points=[[0,0.5],[1,0.5]];portConstraint=eastwest;" vertex="1" parent="6KoDQSctOEpb1ayeHO3l-101">
          <mxGeometry width="310" height="63" as="geometry" />
        </mxCell>
        <mxCell id="6KoDQSctOEpb1ayeHO3l-103" value="Header 1" style="shape=partialRectangle;html=1;whiteSpace=wrap;connectable=0;fillColor=none;top=0;left=0;bottom=0;right=0;overflow=hidden;fontStyle=1" vertex="1" parent="6KoDQSctOEpb1ayeHO3l-102">
          <mxGeometry width="198" height="63" as="geometry">
            <mxRectangle width="198" height="63" as="alternateBounds" />
          </mxGeometry>
        </mxCell>
        <mxCell id="6KoDQSctOEpb1ayeHO3l-104" value="Header 2" style="shape=partialRectangle;html=1;whiteSpace=wrap;connectable=0;fillColor=none;top=0;left=0;bottom=0;right=0;overflow=hidden;fontStyle=1" vertex="1" parent="6KoDQSctOEpb1ayeHO3l-102">
          <mxGeometry x="198" width="112" height="63" as="geometry">
            <mxRectangle width="112" height="63" as="alternateBounds" />
          </mxGeometry>
        </mxCell>
        <mxCell id="6KoDQSctOEpb1ayeHO3l-105" value="" style="shape=tableRow;horizontal=0;startSize=0;swimlaneHead=0;swimlaneBody=0;top=0;left=0;bottom=0;right=0;collapsible=0;dropTarget=0;fillColor=none;points=[[0,0.5],[1,0.5]];portConstraint=eastwest;" vertex="1" parent="6KoDQSctOEpb1ayeHO3l-101">
          <mxGeometry y="63" width="310" height="67" as="geometry" />
        </mxCell>
        <mxCell id="6KoDQSctOEpb1ayeHO3l-106" value="row 1, cell 1" style="shape=partialRectangle;html=1;whiteSpace=wrap;connectable=0;fillColor=none;top=0;left=0;bottom=0;right=0;overflow=hidden;" vertex="1" parent="6KoDQSctOEpb1ayeHO3l-105">
          <mxGeometry width="198" height="67" as="geometry">
            <mxRectangle width="198" height="67" as="alternateBounds" />
          </mxGeometry>
        </mxCell>
        <mxCell id="6KoDQSctOEpb1ayeHO3l-107" value="row 1, cell 2" style="shape=partialRectangle;html=1;whiteSpace=wrap;connectable=0;fillColor=none;top=0;left=0;bottom=0;right=0;overflow=hidden;" vertex="1" parent="6KoDQSctOEpb1ayeHO3l-105">
          <mxGeometry x="198" width="112" height="67" as="geometry">
            <mxRectangle width="112" height="67" as="alternateBounds" />
          </mxGeometry>
        </mxCell>
        <mxCell id="6KoDQSctOEpb1ayeHO3l-108" value="" style="shape=tableRow;horizontal=0;startSize=0;swimlaneHead=0;swimlaneBody=0;top=0;left=0;bottom=0;right=0;collapsible=0;dropTarget=0;fillColor=none;points=[[0,0.5],[1,0.5]];portConstraint=eastwest;" vertex="1" parent="6KoDQSctOEpb1ayeHO3l-101">
          <mxGeometry y="130" width="310" height="15" as="geometry" />
        </mxCell>
        <mxCell id="6KoDQSctOEpb1ayeHO3l-109" value="row 2, cell 1" style="shape=partialRectangle;html=1;whiteSpace=wrap;connectable=0;fillColor=none;top=0;left=0;bottom=0;right=0;overflow=hidden;" vertex="1" parent="6KoDQSctOEpb1ayeHO3l-108">
          <mxGeometry width="198" height="15" as="geometry">
            <mxRectangle width="198" height="15" as="alternateBounds" />
          </mxGeometry>
        </mxCell>
        <mxCell id="6KoDQSctOEpb1ayeHO3l-110" value="row 2, cell 2" style="shape=partialRectangle;html=1;whiteSpace=wrap;connectable=0;fillColor=none;top=0;left=0;bottom=0;right=0;overflow=hidden;" vertex="1" parent="6KoDQSctOEpb1ayeHO3l-108">
          <mxGeometry x="198" width="112" height="15" as="geometry">
            <mxRectangle width="112" height="15" as="alternateBounds" />
          </mxGeometry>
        </mxCell>
      </root>
    </mxGraphModel>
  </diagram>
</mxfile>
